<svg width="38" height="38" viewBox="0 0 38 38" fill="none" xmlns="http://www.w3.org/2000/svg">
<g clip-path="url(#clip0_17_21)">
<path d="M18.9997 34.8333C20.7413 34.8333 22.1663 33.4083 22.1663 31.6667H15.833C15.833 33.4083 17.258 34.8333 18.9997 34.8333ZM28.4997 25.3333V17.4167C28.4997 12.5558 25.9188 8.48668 21.3747 7.41001V6.33334C21.3747 5.01918 20.3138 3.95834 18.9997 3.95834C17.6855 3.95834 16.6247 5.01918 16.6247 6.33334V7.41001C12.0963 8.48668 9.49967 12.54 9.49967 17.4167V25.3333L6.33301 28.5V30.0833H31.6663V28.5L28.4997 25.3333ZM25.333 26.9167H12.6663V17.4167C12.6663 13.49 15.0572 10.2917 18.9997 10.2917C22.9422 10.2917 25.333 13.49 25.333 17.4167V26.9167Z" fill="white"/>
</g>
<defs>
<clipPath id="clip0_17_21">
<rect width="38" height="38" fill="white"/>
</clipPath>
</defs>
</svg>
