<svg width="38" height="38" viewBox="0 0 38 38" fill="none" xmlns="http://www.w3.org/2000/svg">
<g clip-path="url(#clip0_17_24)">
<path d="M17.417 28.5H20.5837V25.3333H17.417V28.5ZM19.0003 3.16666C10.2603 3.16666 3.16699 10.26 3.16699 19C3.16699 27.74 10.2603 34.8333 19.0003 34.8333C27.7403 34.8333 34.8337 27.74 34.8337 19C34.8337 10.26 27.7403 3.16666 19.0003 3.16666ZM19.0003 31.6667C12.0178 31.6667 6.33366 25.9825 6.33366 19C6.33366 12.0175 12.0178 6.33332 19.0003 6.33332C25.9828 6.33332 31.667 12.0175 31.667 19C31.667 25.9825 25.9828 31.6667 19.0003 31.6667ZM19.0003 9.49999C15.5012 9.49999 12.667 12.3342 12.667 15.8333H15.8337C15.8337 14.0917 17.2587 12.6667 19.0003 12.6667C20.742 12.6667 22.167 14.0917 22.167 15.8333C22.167 19 17.417 18.6042 17.417 23.75H20.5837C20.5837 20.1875 25.3337 19.7917 25.3337 15.8333C25.3337 12.3342 22.4995 9.49999 19.0003 9.49999Z" fill="white"/>
</g>
<defs>
<clipPath id="clip0_17_24">
<rect width="38" height="38" fill="white"/>
</clipPath>
</defs>
</svg>
