<svg width="29" height="29" viewBox="0 0 29 29" fill="none" xmlns="http://www.w3.org/2000/svg">
<g clip-path="url(#clip0_17_10)">
<path d="M5.01792 0.725586H19.1241C20.22 0.728546 21.2701 1.14078 22.045 1.87223C22.8199 2.60367 23.2566 3.59488 23.2597 4.6293V13.2175C23.2566 14.2519 22.8199 15.2431 22.045 15.9745C21.2701 16.706 20.22 17.1182 19.1241 17.1212H12.0912L5.91159 22.1377C5.76204 22.2575 5.56827 22.3166 5.37271 22.3018C5.17715 22.2871 4.99573 22.1999 4.86819 22.0591C4.80413 21.9913 4.75496 21.9122 4.72355 21.8263C4.69213 21.7404 4.67909 21.6495 4.68517 21.5588L5.00842 17.1212C3.9142 17.1159 2.86655 16.7026 2.0937 15.9714C1.32086 15.2402 0.885445 14.2503 0.882324 13.2175L0.882324 4.6293C0.88546 3.59488 1.32218 2.60367 2.09708 1.87223C2.87197 1.14078 3.92206 0.728546 5.01792 0.725586V0.725586ZM16.7164 7.71188C16.9985 7.71188 17.2742 7.79083 17.5087 7.93875C17.7432 8.08666 17.926 8.29689 18.034 8.54286C18.1419 8.78883 18.1701 9.05949 18.1151 9.32061C18.0601 9.58172 17.9243 9.82158 17.7248 10.0098C17.5254 10.1981 17.2713 10.3263 16.9947 10.3782C16.718 10.4302 16.4313 10.4035 16.1707 10.3016C15.9101 10.1997 15.6874 10.0272 15.5307 9.80585C15.374 9.58448 15.2904 9.32423 15.2904 9.05799C15.2904 8.70098 15.4406 8.35859 15.7081 8.10615C15.9755 7.85371 16.3382 7.71188 16.7164 7.71188ZM12.0698 7.71188C12.3519 7.71188 12.6276 7.79083 12.8621 7.93875C13.0966 8.08666 13.2794 8.29689 13.3874 8.54286C13.4953 8.78883 13.5235 9.05949 13.4685 9.32061C13.4135 9.58172 13.2777 9.82158 13.0782 10.0098C12.8788 10.1981 12.6247 10.3263 12.348 10.3782C12.0714 10.4302 11.7847 10.4035 11.5241 10.3016C11.2635 10.1997 11.0408 10.0272 10.8841 9.80585C10.7274 9.58448 10.6438 9.32423 10.6438 9.05799C10.6438 8.70098 10.794 8.35859 11.0615 8.10615C11.3289 7.85371 11.6916 7.71188 12.0698 7.71188ZM7.4256 7.71188C7.70765 7.71188 7.98337 7.79083 8.21788 7.93875C8.4524 8.08666 8.63518 8.29689 8.74312 8.54286C8.85105 8.78883 8.8793 9.05949 8.82427 9.32061C8.76925 9.58172 8.63343 9.82158 8.43399 10.0098C8.23455 10.1981 7.98045 10.3263 7.70382 10.3782C7.42719 10.4302 7.14045 10.4035 6.87987 10.3016C6.61929 10.1997 6.39657 10.0272 6.23987 9.80585C6.08317 9.58448 5.99953 9.32423 5.99953 9.05799C5.99953 8.70098 6.14978 8.35859 6.41722 8.10615C6.68466 7.85371 7.04739 7.71188 7.4256 7.71188ZM25.2063 7.03883C26.119 7.20582 26.9419 7.66702 27.5342 8.34352C28.1264 9.02001 28.4512 9.86976 28.453 10.7474V19.3467C28.4467 20.3447 28.0231 21.2999 27.2744 22.0046C26.5257 22.7092 25.5125 23.1062 24.4552 23.1091H24.3103L24.6454 27.6859C24.6554 27.8342 24.6043 27.9805 24.5028 28.0942C24.3987 28.209 24.2507 28.2801 24.0911 28.2919C23.9316 28.3037 23.7736 28.2551 23.6519 28.157L17.4319 22.961H9.24146L13.282 19.0887H21.8384C22.737 19.0858 23.5978 18.7475 24.2332 18.1478C24.8686 17.548 25.2269 16.7354 25.2301 15.8872V7.29683C25.2301 7.21158 25.2301 7.12633 25.2301 7.04332L25.2063 7.03883ZM19.1241 2.12778H5.01792C4.31565 2.12956 3.64268 2.39368 3.14609 2.86242C2.64951 3.33116 2.36969 3.9664 2.36781 4.6293V13.2175C2.36969 13.8804 2.64951 14.5156 3.14609 14.9843C3.64268 15.4531 4.31565 15.7172 5.01792 15.719H5.85693C6.05309 15.7317 6.23596 15.8171 6.36557 15.9567C6.49517 16.0963 6.56097 16.2786 6.54857 16.4638L6.2895 19.9839L11.295 15.9231C11.4342 15.7929 11.622 15.7196 11.8179 15.719H19.1241C19.826 15.716 20.4983 15.4515 20.9946 14.983C21.4909 14.5146 21.7711 13.88 21.7742 13.2175V4.6293C21.7711 3.96676 21.4909 3.33221 20.9946 2.86372C20.4983 2.39523 19.826 2.13073 19.1241 2.12778Z" fill="white"/>
</g>
<defs>
<clipPath id="clip0_17_10">
<rect width="27.5683" height="27.5683" fill="white" transform="translate(0.882324 0.725586)"/>
</clipPath>
</defs>
</svg>
